<?xml version="1.0" encoding="UTF-8"?>
<svg xmlns="http://www.w3.org/2000/svg" xmlns:xlink="http://www.w3.org/1999/xlink" width="237.75pt" height="233.249991pt" viewBox="0 0 237.75 233.249991" version="1.2">
<defs>
<clipPath id="clip1">
  <path d="M 0.257812 0 L 237.246094 0 L 237.246094 232.503906 L 0.257812 232.503906 Z M 0.257812 0 "/>
</clipPath>
<clipPath id="clip2">
  <path d="M 176 96 L 237.246094 96 L 237.246094 158 L 176 158 Z M 176 96 "/>
</clipPath>
<clipPath id="clip3">
  <path d="M 0.257812 161 L 237.246094 161 L 237.246094 232.503906 L 0.257812 232.503906 Z M 0.257812 161 "/>
</clipPath>
<clipPath id="clip4">
  <path d="M 0.257812 96 L 62 96 L 62 158 L 0.257812 158 Z M 0.257812 96 "/>
</clipPath>
</defs>
<g id="surface1">
<g clip-path="url(#clip1)" clip-rule="nonzero">
<path style=" stroke:none;fill-rule:nonzero;fill:rgb(100%,100%,100%);fill-opacity:1;" d="M 0.257812 0 L 237.492188 0 L 237.492188 951.195312 L 0.257812 951.195312 Z M 0.257812 0 "/>
<path style=" stroke:none;fill-rule:nonzero;fill:rgb(100%,100%,100%);fill-opacity:1;" d="M 0.257812 0 L 237.492188 0 L 237.492188 232.746094 L 0.257812 232.746094 Z M 0.257812 0 "/>
<path style=" stroke:none;fill-rule:nonzero;fill:rgb(100%,100%,100%);fill-opacity:1;" d="M 0.257812 0 L 237.492188 0 L 237.492188 232.746094 L 0.257812 232.746094 Z M 0.257812 0 "/>
</g>
<path style=" stroke:none;fill-rule:nonzero;fill:rgb(49.409485%,85.099792%,34.118652%);fill-opacity:1;" d="M 118.992188 96.03125 C 102.171875 96.03125 88.484375 109.730469 88.484375 126.574219 C 88.484375 143.414062 102.171875 157.117188 118.992188 157.117188 C 135.820312 157.117188 149.503906 143.414062 149.503906 126.574219 C 149.503906 109.734375 135.816406 96.03125 118.992188 96.03125 Z M 118.992188 146.566406 C 107.980469 146.566406 99.023438 137.597656 99.023438 126.574219 C 99.023438 115.550781 107.980469 106.582031 118.992188 106.582031 C 130.003906 106.582031 138.964844 115.550781 138.964844 126.574219 C 138.964844 137.597656 130.003906 146.566406 118.992188 146.566406 Z M 118.992188 146.566406 "/>
<g clip-path="url(#clip2)" clip-rule="nonzero">
<path style=" stroke:none;fill-rule:nonzero;fill:rgb(49.409485%,85.099792%,34.118652%);fill-opacity:1;" d="M 206.933594 157.117188 C 223.757812 157.117188 237.445312 143.414062 237.445312 126.574219 C 237.445312 109.734375 223.757812 96.03125 206.933594 96.03125 C 190.109375 96.03125 176.421875 109.730469 176.421875 126.574219 C 176.421875 143.414062 190.109375 157.117188 206.933594 157.117188 Z M 206.933594 106.582031 C 217.945312 106.582031 226.90625 115.550781 226.90625 126.574219 C 226.90625 137.597656 217.945312 146.566406 206.933594 146.566406 C 195.921875 146.566406 186.960938 137.597656 186.960938 126.574219 C 186.960938 115.550781 195.921875 106.582031 206.933594 106.582031 Z M 206.933594 106.582031 "/>
</g>
<g clip-path="url(#clip3)" clip-rule="nonzero">
<path style=" stroke:none;fill-rule:nonzero;fill:rgb(49.409485%,85.099792%,34.118652%);fill-opacity:1;" d="M 219.421875 161.316406 L 202.703125 161.3125 C 202.699219 161.3125 202.695312 161.3125 202.695312 161.3125 C 195.203125 161.3125 188.078125 164.554688 183.148438 170.199219 L 169.347656 186.011719 C 167.5 188.125 164.929688 189.386719 162.171875 189.683594 L 162.171875 181.667969 C 162.171875 170.460938 153.042969 161.339844 141.816406 161.339844 L 99.476562 161.3125 C 99.355469 161.3125 99.234375 161.320312 99.113281 161.324219 C 98.441406 161.339844 96.136719 161.339844 96.136719 161.339844 C 84.941406 161.339844 75.832031 170.457031 75.832031 181.667969 L 75.832031 189.707031 C 72.980469 189.46875 70.304688 188.1875 68.402344 186.011719 L 54.601562 170.199219 C 49.671875 164.550781 42.550781 161.308594 35.058594 161.308594 C 35.054688 161.308594 35.050781 161.308594 35.046875 161.308594 L 18.328125 161.3125 C 8.382812 161.316406 0.296875 169.402344 0.296875 179.34375 L 0.296875 227.433594 C 0.296875 230.347656 2.65625 232.710938 5.566406 232.710938 C 8.476562 232.710938 10.835938 230.347656 10.835938 227.433594 L 10.835938 179.34375 C 10.835938 175.222656 14.195312 171.867188 18.328125 171.867188 L 35.050781 171.863281 C 39.527344 171.972656 43.734375 173.789062 46.664062 177.144531 L 60.46875 192.957031 C 64.574219 197.660156 70.511719 200.359375 76.753906 200.359375 L 81.078125 200.359375 C 81.085938 200.359375 81.09375 200.363281 81.101562 200.363281 C 81.109375 200.363281 81.117188 200.359375 81.128906 200.359375 L 89.710938 200.359375 C 91.929688 200.359375 93.730469 202.164062 93.730469 204.382812 C 93.730469 206.597656 91.929688 208.40625 89.710938 208.40625 L 67.46875 208.40625 C 65.984375 208.40625 64.558594 207.855469 63.457031 206.863281 L 47.980469 192.878906 C 45.816406 190.921875 42.484375 191.097656 40.539062 193.261719 C 38.585938 195.425781 38.757812 198.761719 40.917969 200.710938 L 45.503906 204.855469 L 45.503906 227.433594 C 45.503906 230.347656 47.863281 232.710938 50.773438 232.710938 C 53.6875 232.710938 56.046875 230.347656 56.046875 227.433594 L 56.046875 214.378906 L 56.394531 214.695312 C 58.089844 216.226562 60.078125 217.328125 62.199219 218.042969 L 62.199219 227.433594 C 62.199219 230.347656 64.558594 232.710938 67.46875 232.710938 C 70.378906 232.710938 72.738281 230.347656 72.738281 227.433594 L 72.738281 218.957031 L 89.710938 218.957031 C 89.949219 218.957031 90.183594 218.933594 90.417969 218.921875 C 90.75 218.949219 91.042969 218.957031 91.242188 218.957031 L 146.761719 218.957031 C 146.980469 218.957031 147.199219 218.9375 147.417969 218.925781 C 147.625 218.933594 147.828125 218.957031 148.039062 218.957031 L 165.011719 218.957031 L 165.011719 227.433594 C 165.011719 230.347656 167.375 232.710938 170.285156 232.710938 C 173.195312 232.710938 175.554688 230.347656 175.554688 227.433594 L 175.554688 218.042969 C 177.675781 217.328125 179.660156 216.226562 181.355469 214.695312 L 181.707031 214.375 L 181.707031 227.433594 C 181.707031 230.347656 184.066406 232.710938 186.976562 232.710938 C 189.886719 232.710938 192.246094 230.347656 192.246094 227.433594 L 192.246094 204.855469 L 196.832031 200.710938 C 198.996094 198.761719 199.164062 195.425781 197.214844 193.261719 C 195.269531 191.101562 191.9375 190.925781 189.773438 192.878906 L 174.292969 206.863281 C 173.191406 207.859375 171.769531 208.40625 170.285156 208.40625 L 148.042969 208.40625 C 145.824219 208.40625 144.023438 206.601562 144.023438 204.382812 C 144.023438 202.164062 145.824219 200.359375 148.042969 200.359375 L 156.878906 200.359375 C 156.886719 200.359375 156.894531 200.363281 156.902344 200.363281 C 156.914062 200.363281 156.921875 200.359375 156.929688 200.359375 L 161 200.359375 C 167.242188 200.359375 173.179688 197.660156 177.285156 192.957031 L 191.089844 177.140625 C 194.015625 173.789062 198.246094 171.863281 202.695312 171.863281 C 202.699219 171.863281 202.703125 171.863281 202.703125 171.863281 L 219.425781 171.867188 C 223.554688 171.867188 226.917969 175.21875 226.917969 179.34375 L 226.917969 227.433594 C 226.917969 230.347656 229.277344 232.710938 232.1875 232.710938 C 235.097656 232.710938 237.457031 230.347656 237.457031 227.433594 L 237.457031 179.34375 C 237.453125 169.402344 229.367188 161.316406 219.421875 161.316406 Z M 133.476562 204.382812 C 133.476562 205.777344 133.6875 207.125 134.054688 208.40625 L 103.695312 208.40625 C 104.0625 207.125 104.273438 205.78125 104.273438 204.382812 C 104.273438 196.347656 97.738281 189.808594 89.710938 189.808594 L 86.371094 189.808594 L 86.371094 181.667969 C 86.371094 176.277344 90.75 171.890625 96.136719 171.890625 C 97.1875 171.890625 98.351562 171.890625 99.472656 171.761719 L 141.816406 171.890625 C 147.230469 171.890625 151.632812 176.277344 151.632812 181.667969 L 151.632812 189.808594 L 148.039062 189.808594 C 140.011719 189.808594 133.476562 196.347656 133.476562 204.382812 Z M 133.476562 204.382812 "/>
</g>
<g clip-path="url(#clip4)" clip-rule="nonzero">
<path style=" stroke:none;fill-rule:nonzero;fill:rgb(49.409485%,85.099792%,34.118652%);fill-opacity:1;" d="M 0.304688 126.574219 C 0.304688 143.414062 13.992188 157.117188 30.816406 157.117188 C 47.640625 157.117188 61.328125 143.414062 61.328125 126.574219 C 61.328125 109.734375 47.640625 96.03125 30.816406 96.03125 C 13.992188 96.03125 0.304688 109.734375 0.304688 126.574219 Z M 50.785156 126.574219 C 50.785156 137.597656 41.824219 146.566406 30.816406 146.566406 C 19.804688 146.566406 10.84375 137.597656 10.84375 126.574219 C 10.84375 115.550781 19.804688 106.582031 30.816406 106.582031 C 41.824219 106.582031 50.785156 115.550781 50.785156 126.574219 Z M 50.785156 126.574219 "/>
</g>
<path style=" stroke:none;fill-rule:nonzero;fill:rgb(49.409485%,85.099792%,34.118652%);fill-opacity:1;" d="M 115.5 0 L 58.558594 0 C 44.710938 0 33.445312 11.265625 33.445312 25.113281 L 33.445312 57.636719 C 33.445312 70.914062 43.808594 81.789062 56.867188 82.664062 L 54.660156 90.753906 C 54.117188 92.730469 54.773438 94.847656 56.335938 96.171875 C 57.308594 96.992188 58.519531 97.417969 59.742188 97.417969 C 60.496094 97.417969 61.25 97.261719 61.957031 96.929688 L 92.546875 82.75 L 115.5 82.75 C 129.335938 82.75 140.589844 71.484375 140.589844 57.640625 L 140.589844 25.113281 C 140.589844 11.265625 129.335938 0 115.5 0 Z M 130.046875 57.636719 C 130.046875 65.667969 123.523438 72.199219 115.5 72.199219 L 91.390625 72.199219 C 91.359375 72.199219 91.328125 72.207031 91.296875 72.207031 C 91.125 72.210938 90.953125 72.238281 90.785156 72.257812 C 90.605469 72.28125 90.421875 72.292969 90.246094 72.332031 C 90.125 72.359375 90 72.40625 89.878906 72.445312 C 89.664062 72.511719 89.449219 72.574219 89.246094 72.664062 C 89.222656 72.675781 89.199219 72.675781 89.179688 72.6875 L 67.816406 82.585938 L 68.832031 78.863281 C 68.84375 78.816406 68.84375 78.765625 68.855469 78.71875 C 68.902344 78.535156 68.925781 78.347656 68.949219 78.160156 C 68.972656 77.984375 69 77.808594 69.003906 77.636719 C 69.003906 77.582031 69.019531 77.527344 69.019531 77.472656 C 69.019531 77.363281 68.996094 77.257812 68.988281 77.148438 C 68.976562 76.960938 68.960938 76.773438 68.929688 76.585938 C 68.902344 76.421875 68.859375 76.261719 68.816406 76.097656 C 68.769531 75.933594 68.726562 75.769531 68.664062 75.609375 C 68.601562 75.445312 68.527344 75.289062 68.449219 75.136719 C 68.375 74.988281 68.300781 74.84375 68.214844 74.703125 C 68.125 74.554688 68.023438 74.417969 67.917969 74.285156 C 67.816406 74.148438 67.714844 74.019531 67.601562 73.894531 C 67.484375 73.773438 67.363281 73.660156 67.238281 73.546875 C 67.109375 73.433594 66.984375 73.324219 66.84375 73.222656 C 66.703125 73.117188 66.550781 73.027344 66.398438 72.9375 C 66.261719 72.855469 66.125 72.777344 65.976562 72.707031 C 65.796875 72.625 65.609375 72.558594 65.421875 72.496094 C 65.324219 72.460938 65.238281 72.414062 65.136719 72.386719 C 65.089844 72.371094 65.039062 72.375 64.988281 72.359375 C 64.8125 72.316406 64.628906 72.292969 64.445312 72.269531 C 64.261719 72.242188 64.082031 72.21875 63.898438 72.210938 C 63.847656 72.210938 63.800781 72.199219 63.75 72.199219 L 58.558594 72.199219 C 50.519531 72.199219 43.984375 65.667969 43.984375 57.636719 L 43.984375 25.113281 C 43.984375 17.082031 50.519531 10.550781 58.558594 10.550781 L 115.5 10.550781 C 123.519531 10.550781 130.046875 17.082031 130.046875 25.113281 Z M 130.046875 57.636719 "/>
</g>
</svg>
