<?xml version="1.0" encoding="UTF-8"?>
<svg xmlns="http://www.w3.org/2000/svg" xmlns:xlink="http://www.w3.org/1999/xlink" width="237.75pt" height="233.249991pt" viewBox="0 0 237.75 233.249991" version="1.2">
<defs>
<clipPath id="clip1">
  <path d="M 0.257812 0 L 237.246094 0 L 237.246094 232.503906 L 0.257812 232.503906 Z M 0.257812 0 "/>
</clipPath>
<clipPath id="clip2">
  <path d="M 5 0 L 237.246094 0 L 237.246094 232.503906 L 5 232.503906 Z M 5 0 "/>
</clipPath>
<clipPath id="clip3">
  <path d="M 161 102 L 204.742188 102 L 204.742188 146 L 161 146 Z M 161 102 "/>
</clipPath>
<clipPath id="clip4">
  <path d="M 37.851562 148 L 204.742188 148 L 204.742188 198.410156 L 37.851562 198.410156 Z M 37.851562 148 "/>
</clipPath>
<clipPath id="clip5">
  <path d="M 37.851562 102 L 81 102 L 81 146 L 37.851562 146 Z M 37.851562 102 "/>
</clipPath>
<clipPath id="clip6">
  <path d="M 61 34.515625 L 137 34.515625 L 137 104 L 61 104 Z M 61 34.515625 "/>
</clipPath>
</defs>
<g id="surface1">
<g clip-path="url(#clip1)" clip-rule="nonzero">
<path style=" stroke:none;fill-rule:nonzero;fill:rgb(100%,100%,100%);fill-opacity:1;" d="M 0.257812 0 L 237.492188 0 L 237.492188 951.195312 L 0.257812 951.195312 Z M 0.257812 0 "/>
<path style=" stroke:none;fill-rule:nonzero;fill:rgb(100%,100%,100%);fill-opacity:1;" d="M 0.257812 0 L 237.492188 0 L 237.492188 232.746094 L 0.257812 232.746094 Z M 0.257812 0 "/>
<path style=" stroke:none;fill-rule:nonzero;fill:rgb(100%,100%,100%);fill-opacity:1;" d="M 0.257812 0 L 237.492188 0 L 237.492188 232.746094 L 0.257812 232.746094 Z M 0.257812 0 "/>
</g>
<g clip-path="url(#clip2)" clip-rule="nonzero">
<path style=" stroke:none;fill-rule:nonzero;fill:rgb(49.409485%,85.099792%,34.118652%);fill-opacity:1;" d="M 121.285156 232.5625 C 90.242188 232.5625 61.007812 220.476562 39.074219 198.496094 C 17.089844 176.558594 5.007812 147.324219 5.007812 116.28125 C 5.007812 85.234375 17.089844 56.003906 39.074219 34.066406 C 61.007812 12.082031 90.242188 0 121.285156 0 C 152.332031 0 181.566406 12.082031 203.5 34.066406 C 225.484375 56.050781 237.566406 85.234375 237.566406 116.28125 C 237.566406 147.324219 225.484375 176.558594 203.5 198.496094 C 181.566406 220.476562 152.332031 232.5625 121.285156 232.5625 Z M 121.285156 6.972656 C 92.101562 6.972656 64.632812 18.359375 44 38.992188 C 23.363281 59.628906 11.976562 87.09375 11.976562 116.28125 C 11.976562 145.464844 23.363281 172.933594 44 193.566406 C 64.632812 214.203125 92.101562 225.589844 121.285156 225.589844 C 150.472656 225.589844 177.941406 214.203125 198.574219 193.566406 C 219.210938 172.933594 230.597656 145.464844 230.597656 116.28125 C 230.597656 87.09375 219.210938 59.628906 198.574219 38.992188 C 177.941406 18.359375 150.472656 6.972656 121.285156 6.972656 Z M 121.285156 6.972656 "/>
</g>
<path style=" stroke:none;fill-rule:nonzero;fill:rgb(49.409485%,85.099792%,34.118652%);fill-opacity:1;" d="M 121.378906 102.136719 C 109.546875 102.136719 99.917969 111.789062 99.917969 123.644531 C 99.917969 135.507812 109.546875 145.15625 121.378906 145.15625 C 133.214844 145.15625 142.84375 135.507812 142.84375 123.644531 C 142.84375 111.789062 133.214844 102.136719 121.378906 102.136719 Z M 121.378906 137.726562 C 113.632812 137.726562 107.332031 131.410156 107.332031 123.644531 C 107.332031 115.882812 113.632812 109.570312 121.378906 109.570312 C 129.125 109.570312 135.429688 115.882812 135.429688 123.644531 C 135.429688 131.410156 129.125 137.726562 121.378906 137.726562 Z M 121.378906 137.726562 "/>
<g clip-path="url(#clip3)" clip-rule="nonzero">
<path style=" stroke:none;fill-rule:nonzero;fill:rgb(49.409485%,85.099792%,34.118652%);fill-opacity:1;" d="M 183.242188 145.15625 C 195.078125 145.15625 204.707031 135.507812 204.707031 123.644531 C 204.707031 111.789062 195.078125 102.136719 183.242188 102.136719 C 171.40625 102.136719 161.777344 111.789062 161.777344 123.644531 C 161.777344 135.507812 171.40625 145.15625 183.242188 145.15625 Z M 183.242188 109.570312 C 190.988281 109.570312 197.289062 115.882812 197.289062 123.644531 C 197.289062 131.410156 190.988281 137.726562 183.242188 137.726562 C 175.496094 137.726562 169.191406 131.410156 169.191406 123.644531 C 169.191406 115.882812 175.496094 109.570312 183.242188 109.570312 Z M 183.242188 109.570312 "/>
</g>
<g clip-path="url(#clip4)" clip-rule="nonzero">
<path style=" stroke:none;fill-rule:nonzero;fill:rgb(49.409485%,85.099792%,34.118652%);fill-opacity:1;" d="M 192.027344 148.109375 L 180.265625 148.109375 C 180.261719 148.109375 180.261719 148.109375 180.257812 148.109375 C 174.988281 148.109375 169.976562 150.390625 166.511719 154.367188 L 156.800781 165.5 C 155.503906 166.988281 153.691406 167.878906 151.753906 168.085938 L 151.753906 162.441406 C 151.753906 154.550781 145.332031 148.128906 137.433594 148.128906 L 107.652344 148.109375 L 107.648438 148.109375 C 107.5625 148.109375 107.480469 148.113281 107.394531 148.117188 C 106.921875 148.128906 105.300781 148.128906 105.300781 148.128906 C 97.425781 148.128906 91.015625 154.550781 91.015625 162.441406 L 91.015625 168.105469 C 89.011719 167.933594 87.128906 167.035156 85.792969 165.5 L 76.082031 154.367188 C 72.617188 150.390625 67.605469 148.105469 62.335938 148.105469 C 62.335938 148.105469 62.332031 148.105469 62.328125 148.105469 L 50.566406 148.109375 C 43.570312 148.109375 37.882812 153.804688 37.882812 160.804688 L 37.882812 194.671875 C 37.882812 196.722656 39.542969 198.386719 41.589844 198.386719 C 43.636719 198.386719 45.296875 196.722656 45.296875 194.671875 L 45.296875 160.804688 C 45.296875 157.902344 47.660156 155.539062 50.566406 155.539062 L 62.332031 155.539062 C 65.480469 155.617188 68.4375 156.894531 70.5 159.257812 L 80.210938 170.390625 C 83.101562 173.703125 87.277344 175.605469 91.664062 175.605469 L 94.707031 175.605469 C 94.714844 175.605469 94.71875 175.605469 94.726562 175.605469 C 94.730469 175.605469 94.738281 175.605469 94.742188 175.605469 L 100.78125 175.605469 C 102.339844 175.605469 103.609375 176.875 103.609375 178.4375 C 103.609375 180 102.339844 181.269531 100.78125 181.269531 L 85.132812 181.269531 C 84.089844 181.269531 83.089844 180.882812 82.3125 180.183594 L 71.425781 170.335938 C 69.902344 168.957031 67.558594 169.082031 66.191406 170.605469 C 64.816406 172.128906 64.9375 174.480469 66.457031 175.851562 L 69.683594 178.769531 L 69.683594 194.671875 C 69.683594 196.722656 71.34375 198.386719 73.390625 198.386719 C 75.4375 198.386719 77.097656 196.722656 77.097656 194.671875 L 77.097656 185.476562 L 77.34375 185.699219 C 78.539062 186.777344 79.933594 187.554688 81.425781 188.058594 L 81.425781 194.671875 C 81.425781 196.722656 83.085938 198.386719 85.132812 198.386719 C 87.183594 198.386719 88.84375 196.722656 88.84375 194.671875 L 88.84375 188.703125 L 100.78125 188.703125 C 100.949219 188.703125 101.113281 188.683594 101.277344 188.675781 C 101.511719 188.695312 101.71875 188.703125 101.859375 188.703125 L 140.914062 188.703125 C 141.066406 188.703125 141.21875 188.6875 141.375 188.679688 C 141.519531 188.683594 141.664062 188.703125 141.8125 188.703125 L 153.753906 188.703125 L 153.753906 194.671875 C 153.753906 196.722656 155.414062 198.386719 157.460938 198.386719 C 159.507812 198.386719 161.167969 196.722656 161.167969 194.671875 L 161.167969 188.058594 C 162.660156 187.554688 164.058594 186.777344 165.246094 185.699219 L 165.496094 185.476562 L 165.496094 194.671875 C 165.496094 196.722656 167.15625 198.386719 169.203125 198.386719 C 171.25 198.386719 172.910156 196.722656 172.910156 194.671875 L 172.910156 178.769531 L 176.136719 175.851562 C 177.65625 174.480469 177.777344 172.128906 176.40625 170.605469 C 175.035156 169.085938 172.691406 168.960938 171.167969 170.339844 L 160.28125 180.183594 C 159.507812 180.886719 158.503906 181.269531 157.460938 181.269531 L 141.8125 181.269531 C 140.253906 181.269531 138.984375 180 138.984375 178.4375 C 138.984375 176.875 140.253906 175.605469 141.8125 175.605469 L 148.03125 175.605469 C 148.035156 175.605469 148.042969 175.609375 148.046875 175.609375 C 148.054688 175.609375 148.058594 175.605469 148.066406 175.605469 L 150.929688 175.605469 C 155.320312 175.605469 159.496094 173.707031 162.382812 170.394531 L 172.09375 159.257812 C 174.15625 156.894531 177.128906 155.539062 180.261719 155.539062 C 180.261719 155.539062 180.265625 155.539062 180.265625 155.539062 L 192.027344 155.539062 C 194.933594 155.539062 197.296875 157.902344 197.296875 160.804688 L 197.296875 194.671875 C 197.296875 196.722656 198.957031 198.386719 201.003906 198.386719 C 203.054688 198.386719 204.714844 196.722656 204.714844 194.671875 L 204.714844 160.804688 C 204.710938 153.804688 199.023438 148.109375 192.027344 148.109375 Z M 131.570312 178.4375 C 131.570312 179.421875 131.714844 180.371094 131.976562 181.269531 L 110.617188 181.269531 C 110.875 180.371094 111.023438 179.421875 111.023438 178.4375 C 111.023438 172.78125 106.429688 168.175781 100.78125 168.175781 L 98.433594 168.175781 L 98.433594 162.441406 C 98.433594 158.648438 101.511719 155.558594 105.300781 155.558594 C 106.039062 155.558594 106.859375 155.558594 107.648438 155.46875 L 137.433594 155.558594 C 141.242188 155.558594 144.339844 158.644531 144.339844 162.441406 L 144.339844 168.175781 L 141.8125 168.175781 C 136.164062 168.175781 131.570312 172.78125 131.570312 178.4375 Z M 131.570312 178.4375 "/>
</g>
<g clip-path="url(#clip5)" clip-rule="nonzero">
<path style=" stroke:none;fill-rule:nonzero;fill:rgb(49.409485%,85.099792%,34.118652%);fill-opacity:1;" d="M 37.886719 123.644531 C 37.886719 135.507812 47.515625 145.15625 59.351562 145.15625 C 71.1875 145.15625 80.816406 135.507812 80.816406 123.644531 C 80.816406 111.789062 71.1875 102.136719 59.351562 102.136719 C 47.515625 102.136719 37.886719 111.789062 37.886719 123.644531 Z M 73.398438 123.644531 C 73.398438 131.410156 67.097656 137.726562 59.351562 137.726562 C 51.605469 137.726562 45.300781 131.410156 45.300781 123.644531 C 45.300781 115.882812 51.605469 109.570312 59.351562 109.570312 C 67.097656 109.570312 73.398438 115.882812 73.398438 123.644531 Z M 73.398438 123.644531 "/>
</g>
<g clip-path="url(#clip6)" clip-rule="nonzero">
<path style=" stroke:none;fill-rule:nonzero;fill:rgb(49.409485%,85.099792%,34.118652%);fill-opacity:1;" d="M 118.921875 34.515625 L 78.867188 34.515625 C 69.125 34.515625 61.203125 42.449219 61.203125 52.199219 L 61.203125 75.105469 C 61.203125 84.453125 68.492188 92.109375 77.679688 92.726562 L 76.125 98.421875 C 75.742188 99.816406 76.203125 101.304688 77.304688 102.238281 C 77.988281 102.816406 78.839844 103.117188 79.699219 103.117188 C 80.230469 103.117188 80.761719 103.003906 81.257812 102.773438 L 102.777344 92.789062 L 118.921875 92.789062 C 128.65625 92.789062 136.570312 84.855469 136.570312 75.105469 L 136.570312 52.199219 C 136.570312 42.449219 128.65625 34.515625 118.921875 34.515625 Z M 129.15625 75.105469 C 129.15625 80.757812 124.566406 85.355469 118.921875 85.355469 L 101.964844 85.355469 C 101.941406 85.355469 101.917969 85.363281 101.894531 85.363281 C 101.777344 85.367188 101.65625 85.386719 101.535156 85.398438 C 101.410156 85.414062 101.28125 85.421875 101.160156 85.449219 C 101.070312 85.46875 100.984375 85.503906 100.898438 85.53125 C 100.746094 85.574219 100.597656 85.621094 100.453125 85.683594 C 100.4375 85.691406 100.421875 85.695312 100.40625 85.699219 L 85.378906 92.671875 L 86.09375 90.050781 C 86.101562 90.015625 86.101562 89.980469 86.109375 89.949219 C 86.140625 89.820312 86.160156 89.6875 86.175781 89.554688 C 86.191406 89.429688 86.210938 89.308594 86.214844 89.1875 C 86.214844 89.148438 86.226562 89.109375 86.226562 89.070312 C 86.226562 88.992188 86.207031 88.917969 86.203125 88.84375 C 86.195312 88.710938 86.1875 88.578125 86.164062 88.445312 C 86.144531 88.328125 86.113281 88.21875 86.082031 88.101562 C 86.050781 87.988281 86.019531 87.871094 85.976562 87.757812 C 85.933594 87.644531 85.878906 87.535156 85.824219 87.425781 C 85.773438 87.320312 85.722656 87.21875 85.660156 87.121094 C 85.597656 87.015625 85.527344 86.921875 85.453125 86.824219 C 85.378906 86.730469 85.308594 86.640625 85.226562 86.550781 C 85.148438 86.464844 85.0625 86.386719 84.972656 86.304688 C 84.882812 86.226562 84.792969 86.148438 84.695312 86.078125 C 84.59375 86.003906 84.488281 85.941406 84.382812 85.878906 C 84.285156 85.820312 84.1875 85.765625 84.085938 85.714844 C 83.960938 85.65625 83.828125 85.609375 83.695312 85.566406 C 83.625 85.542969 83.566406 85.507812 83.496094 85.488281 C 83.460938 85.480469 83.425781 85.480469 83.390625 85.472656 C 83.265625 85.441406 83.136719 85.421875 83.007812 85.40625 C 82.878906 85.386719 82.75 85.371094 82.625 85.367188 C 82.585938 85.367188 82.554688 85.355469 82.515625 85.355469 L 78.867188 85.355469 C 73.214844 85.355469 68.613281 80.757812 68.613281 75.101562 L 68.613281 52.199219 C 68.613281 46.542969 73.214844 41.945312 78.867188 41.945312 L 118.921875 41.945312 C 124.566406 41.945312 129.15625 46.542969 129.15625 52.199219 Z M 129.15625 75.105469 "/>
</g>
</g>
</svg>
