<?xml version="1.0" encoding="UTF-8"?>
<svg xmlns="http://www.w3.org/2000/svg" xmlns:xlink="http://www.w3.org/1999/xlink" width="237.75pt" height="233.249991pt" viewBox="0 0 237.75 233.249991" version="1.2">
<defs>
<clipPath id="clip1">
  <path d="M 0.257812 0 L 237.246094 0 L 237.246094 232.503906 L 0.257812 232.503906 Z M 0.257812 0 "/>
</clipPath>
<clipPath id="clip2">
  <path d="M 8.464844 27 L 70 27 L 70 89 L 8.464844 89 Z M 8.464844 27 "/>
</clipPath>
<clipPath id="clip3">
  <path d="M 8.464844 99 L 70 99 L 70 161 L 8.464844 161 Z M 8.464844 99 "/>
</clipPath>
<clipPath id="clip4">
  <path d="M 8.464844 171 L 70 171 L 70 232.503906 L 8.464844 232.503906 Z M 8.464844 171 "/>
</clipPath>
<clipPath id="clip5">
  <path d="M 85 51 L 229.238281 51 L 229.238281 64 L 85 64 Z M 85 51 "/>
</clipPath>
<clipPath id="clip6">
  <path d="M 85 124 L 229.238281 124 L 229.238281 136 L 85 136 Z M 85 124 "/>
</clipPath>
<clipPath id="clip7">
  <path d="M 85 196 L 229.238281 196 L 229.238281 208 L 85 208 Z M 85 196 "/>
</clipPath>
</defs>
<g id="surface1">
<g clip-path="url(#clip1)" clip-rule="nonzero">
<path style=" stroke:none;fill-rule:nonzero;fill:rgb(100%,100%,100%);fill-opacity:1;" d="M 0.257812 0 L 237.492188 0 L 237.492188 232.746094 L 0.257812 232.746094 Z M 0.257812 0 "/>
<path style=" stroke:none;fill-rule:nonzero;fill:rgb(100%,100%,100%);fill-opacity:1;" d="M 0.257812 0 L 237.492188 0 L 237.492188 232.746094 L 0.257812 232.746094 Z M 0.257812 0 "/>
</g>
<path style=" stroke:none;fill-rule:nonzero;fill:rgb(21.958923%,71.369934%,100%);fill-opacity:1;" d="M 39.085938 70.933594 C 39.035156 70.933594 38.988281 70.933594 38.9375 70.933594 C 37.015625 70.882812 35.242188 69.890625 34.199219 68.277344 L 24.167969 52.769531 C 22.421875 50.070312 23.195312 46.46875 25.890625 44.722656 C 28.589844 42.976562 32.191406 43.75 33.9375 46.445312 L 39.351562 54.8125 L 76.617188 3.203125 C 78.496094 0.597656 82.132812 0.0117188 84.738281 1.890625 C 87.34375 3.773438 87.929688 7.410156 86.046875 10.019531 L 43.800781 68.523438 C 42.707031 70.039062 40.949219 70.933594 39.085938 70.933594 "/>
<g clip-path="url(#clip2)" clip-rule="nonzero">
<path style=" stroke:none;fill-rule:nonzero;fill:rgb(21.958923%,71.369934%,100%);fill-opacity:1;" d="M 20.175781 76.699219 L 58.101562 76.699219 L 58.101562 38.769531 L 20.175781 38.769531 Z M 63.917969 88.339844 L 14.359375 88.339844 C 11.144531 88.339844 8.539062 85.734375 8.539062 82.519531 L 8.539062 32.953125 C 8.539062 29.738281 11.144531 27.132812 14.359375 27.132812 L 63.917969 27.132812 C 67.132812 27.132812 69.734375 29.738281 69.734375 32.953125 L 69.734375 82.519531 C 69.734375 85.734375 67.132812 88.339844 63.917969 88.339844 "/>
</g>
<g clip-path="url(#clip3)" clip-rule="nonzero">
<path style=" stroke:none;fill-rule:nonzero;fill:rgb(21.958923%,71.369934%,100%);fill-opacity:1;" d="M 20.175781 148.90625 L 58.101562 148.90625 L 58.101562 110.976562 L 20.175781 110.976562 Z M 63.917969 160.546875 L 14.359375 160.546875 C 11.144531 160.546875 8.539062 157.9375 8.539062 154.726562 L 8.539062 105.160156 C 8.539062 101.945312 11.144531 99.339844 14.359375 99.339844 L 63.917969 99.339844 C 67.132812 99.339844 69.734375 101.945312 69.734375 105.160156 L 69.734375 154.726562 C 69.734375 157.9375 67.132812 160.546875 63.917969 160.546875 "/>
</g>
<g clip-path="url(#clip4)" clip-rule="nonzero">
<path style=" stroke:none;fill-rule:nonzero;fill:rgb(21.958923%,71.369934%,100%);fill-opacity:1;" d="M 20.175781 221.109375 L 58.101562 221.109375 L 58.101562 183.183594 L 20.175781 183.183594 Z M 63.917969 232.75 L 14.359375 232.75 C 11.144531 232.75 8.539062 230.144531 8.539062 226.929688 L 8.539062 177.363281 C 8.539062 174.148438 11.144531 171.542969 14.359375 171.542969 L 63.917969 171.542969 C 67.132812 171.542969 69.734375 174.148438 69.734375 177.363281 L 69.734375 226.929688 C 69.734375 230.144531 67.132812 232.75 63.917969 232.75 "/>
</g>
<g clip-path="url(#clip5)" clip-rule="nonzero">
<path style=" stroke:none;fill-rule:nonzero;fill:rgb(21.958923%,71.369934%,100%);fill-opacity:1;" d="M 223.300781 63.554688 L 91.417969 63.554688 C 88.203125 63.554688 85.597656 60.949219 85.597656 57.734375 C 85.597656 54.523438 88.203125 51.917969 91.417969 51.917969 L 223.300781 51.917969 C 226.515625 51.917969 229.121094 54.523438 229.121094 57.734375 C 229.121094 60.949219 226.515625 63.554688 223.300781 63.554688 "/>
</g>
<g clip-path="url(#clip6)" clip-rule="nonzero">
<path style=" stroke:none;fill-rule:nonzero;fill:rgb(21.958923%,71.369934%,100%);fill-opacity:1;" d="M 223.300781 135.761719 L 91.417969 135.761719 C 88.203125 135.761719 85.597656 133.15625 85.597656 129.941406 C 85.597656 126.726562 88.203125 124.125 91.417969 124.125 L 223.300781 124.125 C 226.515625 124.125 229.121094 126.726562 229.121094 129.941406 C 229.121094 133.15625 226.515625 135.761719 223.300781 135.761719 "/>
</g>
<g clip-path="url(#clip7)" clip-rule="nonzero">
<path style=" stroke:none;fill-rule:nonzero;fill:rgb(21.958923%,71.369934%,100%);fill-opacity:1;" d="M 223.300781 207.964844 L 91.417969 207.964844 C 88.203125 207.964844 85.597656 205.359375 85.597656 202.148438 C 85.597656 198.933594 88.203125 196.328125 91.417969 196.328125 L 223.300781 196.328125 C 226.515625 196.328125 229.121094 198.933594 229.121094 202.148438 C 229.121094 205.359375 226.515625 207.964844 223.300781 207.964844 "/>
</g>
</g>
</svg>
