<?xml version="1.0" encoding="UTF-8"?>
<svg xmlns="http://www.w3.org/2000/svg" xmlns:xlink="http://www.w3.org/1999/xlink" width="237.75pt" height="233.249991pt" viewBox="0 0 237.75 233.249991" version="1.2">
<defs>
<clipPath id="clip1">
  <path d="M 0.257812 0 L 237.246094 0 L 237.246094 232.503906 L 0.257812 232.503906 Z M 0.257812 0 "/>
</clipPath>
<clipPath id="clip2">
  <path d="M 4 0 L 237.246094 0 L 237.246094 232.503906 L 4 232.503906 Z M 4 0 "/>
</clipPath>
<clipPath id="clip3">
  <path d="M 48 23.273438 L 96 23.273438 L 96 76 L 48 76 Z M 48 23.273438 "/>
</clipPath>
<clipPath id="clip4">
  <path d="M 37.539062 43 L 83 43 L 83 89 L 37.539062 89 Z M 37.539062 43 "/>
</clipPath>
<clipPath id="clip5">
  <path d="M 37.539062 96 L 83 96 L 83 142 L 37.539062 142 Z M 37.539062 96 "/>
</clipPath>
<clipPath id="clip6">
  <path d="M 37.539062 149 L 83 149 L 83 194.652344 L 37.539062 194.652344 Z M 37.539062 149 "/>
</clipPath>
<clipPath id="clip7">
  <path d="M 94 61 L 199.9375 61 L 199.9375 71 L 94 71 Z M 94 61 "/>
</clipPath>
<clipPath id="clip8">
  <path d="M 94 114 L 199.9375 114 L 199.9375 124 L 94 124 Z M 94 114 "/>
</clipPath>
<clipPath id="clip9">
  <path d="M 94 167 L 199.9375 167 L 199.9375 177 L 94 177 Z M 94 167 "/>
</clipPath>
</defs>
<g id="surface1">
<g clip-path="url(#clip1)" clip-rule="nonzero">
<path style=" stroke:none;fill-rule:nonzero;fill:rgb(100%,100%,100%);fill-opacity:1;" d="M 0.257812 0 L 237.492188 0 L 237.492188 232.746094 L 0.257812 232.746094 Z M 0.257812 0 "/>
<path style=" stroke:none;fill-rule:nonzero;fill:rgb(100%,100%,100%);fill-opacity:1;" d="M 0.257812 0 L 237.492188 0 L 237.492188 232.746094 L 0.257812 232.746094 Z M 0.257812 0 "/>
</g>
<g clip-path="url(#clip2)" clip-rule="nonzero">
<path style=" stroke:none;fill-rule:nonzero;fill:rgb(21.958923%,71.369934%,100%);fill-opacity:1;" d="M 121.027344 232.5625 C 89.980469 232.5625 60.75 220.476562 38.8125 198.496094 C 16.832031 176.558594 4.746094 147.324219 4.746094 116.28125 C 4.746094 85.234375 16.832031 56.003906 38.8125 34.066406 C 60.75 12.082031 89.980469 0 121.027344 0 C 152.074219 0 181.304688 12.082031 203.242188 34.066406 C 225.222656 56.050781 237.308594 85.234375 237.308594 116.28125 C 237.308594 147.324219 225.222656 176.558594 203.242188 198.496094 C 181.304688 220.476562 152.074219 232.5625 121.027344 232.5625 Z M 121.027344 6.972656 C 91.839844 6.972656 64.375 18.359375 43.738281 38.992188 C 23.105469 59.628906 11.71875 87.09375 11.71875 116.28125 C 11.71875 145.464844 23.105469 172.933594 43.738281 193.566406 C 64.375 214.203125 91.839844 225.589844 121.027344 225.589844 C 150.214844 225.589844 177.679688 214.203125 198.316406 193.566406 C 218.949219 172.933594 230.335938 145.464844 230.335938 116.28125 C 230.335938 87.09375 218.949219 59.628906 198.316406 38.992188 C 177.679688 18.359375 150.214844 6.972656 121.027344 6.972656 Z M 121.027344 6.972656 "/>
</g>
<g clip-path="url(#clip3)" clip-rule="nonzero">
<path style=" stroke:none;fill-rule:nonzero;fill:rgb(21.958923%,71.369934%,100%);fill-opacity:1;" d="M 60.066406 75.507812 C 60.03125 75.507812 59.996094 75.507812 59.957031 75.503906 C 58.546875 75.46875 57.242188 74.738281 56.476562 73.550781 L 49.097656 62.132812 C 47.8125 60.144531 48.378906 57.492188 50.363281 56.203125 C 52.347656 54.917969 54.996094 55.488281 56.28125 57.476562 L 60.261719 63.632812 L 87.671875 25.632812 C 89.058594 23.714844 91.730469 23.28125 93.648438 24.667969 C 95.5625 26.054688 95.996094 28.730469 94.609375 30.652344 L 63.539062 73.730469 C 62.730469 74.847656 61.441406 75.507812 60.066406 75.507812 "/>
</g>
<g clip-path="url(#clip4)" clip-rule="nonzero">
<path style=" stroke:none;fill-rule:nonzero;fill:rgb(21.958923%,71.369934%,100%);fill-opacity:1;" d="M 46.160156 79.753906 L 74.054688 79.753906 L 74.054688 51.824219 L 46.160156 51.824219 Z M 78.332031 88.320312 L 41.878906 88.320312 C 39.515625 88.320312 37.601562 86.402344 37.601562 84.039062 L 37.601562 47.539062 C 37.601562 45.171875 39.515625 43.253906 41.878906 43.253906 L 78.332031 43.253906 C 80.695312 43.253906 82.613281 45.171875 82.613281 47.539062 L 82.613281 84.039062 C 82.613281 86.402344 80.695312 88.320312 78.332031 88.320312 "/>
</g>
<g clip-path="url(#clip5)" clip-rule="nonzero">
<path style=" stroke:none;fill-rule:nonzero;fill:rgb(21.958923%,71.369934%,100%);fill-opacity:1;" d="M 46.160156 132.917969 L 74.054688 132.917969 L 74.054688 104.992188 L 46.160156 104.992188 Z M 78.332031 141.488281 L 41.878906 141.488281 C 39.515625 141.488281 37.601562 139.570312 37.601562 137.203125 L 37.601562 100.707031 C 37.601562 98.339844 39.515625 96.421875 41.878906 96.421875 L 78.332031 96.421875 C 80.695312 96.421875 82.613281 98.339844 82.613281 100.707031 L 82.613281 137.203125 C 82.613281 139.570312 80.695312 141.488281 78.332031 141.488281 "/>
</g>
<g clip-path="url(#clip6)" clip-rule="nonzero">
<path style=" stroke:none;fill-rule:nonzero;fill:rgb(21.958923%,71.369934%,100%);fill-opacity:1;" d="M 46.160156 186.085938 L 74.054688 186.085938 L 74.054688 158.160156 L 46.160156 158.160156 Z M 78.332031 194.65625 L 41.878906 194.65625 C 39.515625 194.65625 37.601562 192.738281 37.601562 190.371094 L 37.601562 153.875 C 37.601562 151.507812 39.515625 149.589844 41.878906 149.589844 L 78.332031 149.589844 C 80.695312 149.589844 82.613281 151.507812 82.613281 153.875 L 82.613281 190.371094 C 82.613281 192.738281 80.695312 194.65625 78.332031 194.65625 "/>
</g>
<g clip-path="url(#clip7)" clip-rule="nonzero">
<path style=" stroke:none;fill-rule:nonzero;fill:rgb(21.958923%,71.369934%,100%);fill-opacity:1;" d="M 195.566406 70.074219 L 98.5625 70.074219 C 96.195312 70.074219 94.28125 68.152344 94.28125 65.789062 C 94.28125 63.421875 96.195312 61.503906 98.5625 61.503906 L 195.566406 61.503906 C 197.929688 61.503906 199.84375 63.421875 199.84375 65.789062 C 199.84375 68.152344 197.929688 70.074219 195.566406 70.074219 "/>
</g>
<g clip-path="url(#clip8)" clip-rule="nonzero">
<path style=" stroke:none;fill-rule:nonzero;fill:rgb(21.958923%,71.369934%,100%);fill-opacity:1;" d="M 195.566406 123.238281 L 98.5625 123.238281 C 96.195312 123.238281 94.28125 121.324219 94.28125 118.953125 C 94.28125 116.589844 96.195312 114.671875 98.5625 114.671875 L 195.566406 114.671875 C 197.929688 114.671875 199.84375 116.589844 199.84375 118.953125 C 199.84375 121.324219 197.929688 123.238281 195.566406 123.238281 "/>
</g>
<g clip-path="url(#clip9)" clip-rule="nonzero">
<path style=" stroke:none;fill-rule:nonzero;fill:rgb(21.958923%,71.369934%,100%);fill-opacity:1;" d="M 195.566406 176.40625 L 98.5625 176.40625 C 96.195312 176.40625 94.28125 174.488281 94.28125 172.121094 C 94.28125 169.753906 96.195312 167.835938 98.5625 167.835938 L 195.566406 167.835938 C 197.929688 167.835938 199.84375 169.753906 199.84375 172.121094 C 199.84375 174.488281 197.929688 176.40625 195.566406 176.40625 "/>
</g>
</g>
</svg>
