<?xml version="1.0" encoding="UTF-8"?>
<svg xmlns="http://www.w3.org/2000/svg" xmlns:xlink="http://www.w3.org/1999/xlink" width="237.75pt" height="233.249991pt" viewBox="0 0 237.75 233.249991" version="1.2">
<defs>
<clipPath id="clip1">
  <path d="M 0.257812 0 L 237.246094 0 L 237.246094 232.503906 L 0.257812 232.503906 Z M 0.257812 0 "/>
</clipPath>
<clipPath id="clip2">
  <path d="M 9.484375 0 L 228 0 L 228 232.503906 L 9.484375 232.503906 Z M 9.484375 0 "/>
</clipPath>
</defs>
<g id="surface1">
<g clip-path="url(#clip1)" clip-rule="nonzero">
<path style=" stroke:none;fill-rule:nonzero;fill:rgb(100%,100%,100%);fill-opacity:1;" d="M 0.257812 0 L 237.492188 0 L 237.492188 232.746094 L 0.257812 232.746094 Z M 0.257812 0 "/>
<path style=" stroke:none;fill-rule:nonzero;fill:rgb(100%,100%,100%);fill-opacity:1;" d="M 0.257812 0 L 237.492188 0 L 237.492188 232.746094 L 0.257812 232.746094 Z M 0.257812 0 "/>
</g>
<g clip-path="url(#clip2)" clip-rule="nonzero">
<path style=" stroke:none;fill-rule:nonzero;fill:rgb(100%,34.118652%,34.118652%);fill-opacity:1;" d="M 56.660156 0 C 30.875 0 9.972656 20.925781 9.972656 46.738281 C 9.972656 72.546875 30.875 93.472656 56.660156 93.472656 C 82.441406 93.472656 103.34375 72.546875 103.34375 46.738281 C 103.34375 20.925781 82.441406 0 56.660156 0 Z M 56.660156 14.019531 C 59.238281 14.019531 61.328125 16.113281 61.328125 18.695312 L 61.328125 46.738281 C 61.328125 46.964844 61.230469 47.164062 61.199219 47.382812 C 61.152344 47.722656 61.121094 48.058594 61 48.378906 C 60.890625 48.660156 60.71875 48.890625 60.5625 49.144531 C 60.402344 49.402344 60.265625 49.671875 60.058594 49.894531 C 59.832031 50.140625 59.550781 50.316406 59.273438 50.507812 C 59.089844 50.636719 58.957031 50.8125 58.746094 50.917969 L 40.074219 60.265625 C 39.40625 60.597656 38.695312 60.757812 37.992188 60.757812 C 36.28125 60.757812 34.628906 59.8125 33.808594 58.175781 C 32.65625 55.863281 33.589844 53.058594 35.898438 51.902344 L 51.988281 43.851562 L 51.988281 18.695312 C 51.988281 16.113281 54.078125 14.019531 56.660156 14.019531 Z M 166.648438 32.714844 C 155.046875 32.714844 145.640625 42.132812 145.640625 53.746094 C 145.640625 65.359375 155.046875 74.777344 166.648438 74.777344 C 178.25 74.777344 187.65625 65.359375 187.65625 53.746094 C 187.65625 42.132812 178.25 32.714844 166.648438 32.714844 Z M 148 74.734375 C 147.664062 74.742188 139.683594 74.988281 133.785156 76.757812 L 103.40625 87.09375 C 100.167969 88.386719 98.058594 90.347656 97.078125 92.84375 L 81.585938 122.070312 C 78.65625 127.355469 79.898438 133.730469 84.613281 137.269531 C 87.417969 139.238281 90.9375 139.929688 94.261719 139.140625 C 97.554688 138.363281 100.386719 136.199219 102.027344 133.171875 L 114.792969 108.882812 L 130.871094 102.582031 L 119.296875 138.15625 C 117.1875 145.542969 119.113281 152.292969 125.296875 158.445312 L 160.484375 184.1875 L 171.890625 224.460938 C 173.347656 229.601562 178.035156 232.96875 183.125 232.96875 C 184.175781 232.96875 185.238281 232.820312 186.296875 232.523438 C 189.304688 231.671875 191.792969 229.695312 193.308594 226.972656 C 194.832031 224.246094 195.191406 221.089844 194.347656 218.089844 L 181.691406 173.390625 C 180.1875 168.65625 177.316406 165.765625 175.691406 164.425781 L 157.859375 150.570312 L 167.105469 119.707031 L 173.296875 129.820312 C 175.714844 133.453125 179.304688 135.535156 183.167969 135.535156 L 215.382812 135.535156 C 218.839844 135.535156 222.132812 133.992188 224.417969 131.289062 C 226.617188 128.6875 227.558594 125.324219 227.019531 122.0625 L 227.007812 121.988281 C 225.871094 116.296875 220.785156 112.167969 214.917969 112.167969 L 190.070312 112.167969 L 176.292969 89.914062 C 170.832031 80.972656 159.230469 74.734375 148 74.734375 Z M 118.441406 163.347656 L 111.683594 176.4375 L 80.875 174.101562 C 74.804688 173.632812 69.207031 178.304688 68.738281 184.378906 C 68.273438 190.457031 72.9375 196.066406 79.007812 196.539062 C 79.007812 196.539062 118.222656 199.339844 118.6875 199.339844 C 122.890625 199.339844 127.085938 196.535156 128.953125 192.796875 L 135.574219 177.882812 L 120.832031 165.914062 L 120.4375 165.605469 L 120.101562 165.257812 C 119.46875 164.621094 118.988281 163.988281 118.441406 163.347656 Z M 118.441406 163.347656 "/>
</g>
</g>
</svg>
