<?xml version="1.0" encoding="UTF-8"?>
<svg xmlns="http://www.w3.org/2000/svg" xmlns:xlink="http://www.w3.org/1999/xlink" width="237.75pt" height="233.249991pt" viewBox="0 0 237.75 233.249991" version="1.2">
<defs>
<clipPath id="clip1">
  <path d="M 0.257812 0 L 237.246094 0 L 237.246094 232.503906 L 0.257812 232.503906 Z M 0.257812 0 "/>
</clipPath>
<clipPath id="clip2">
  <path d="M 0.257812 0 L 233 0 L 233 232.503906 L 0.257812 232.503906 Z M 0.257812 0 "/>
</clipPath>
<clipPath id="clip3">
  <path d="M 34 28.136719 L 199.828125 28.136719 L 199.828125 204.753906 L 34 204.753906 Z M 34 28.136719 "/>
</clipPath>
</defs>
<g id="surface1">
<g clip-path="url(#clip1)" clip-rule="nonzero">
<path style=" stroke:none;fill-rule:nonzero;fill:rgb(100%,100%,100%);fill-opacity:1;" d="M 0.257812 0 L 237.492188 0 L 237.492188 232.746094 L 0.257812 232.746094 Z M 0.257812 0 "/>
<path style=" stroke:none;fill-rule:nonzero;fill:rgb(100%,100%,100%);fill-opacity:1;" d="M 0.257812 0 L 237.492188 0 L 237.492188 232.746094 L 0.257812 232.746094 Z M 0.257812 0 "/>
</g>
<g clip-path="url(#clip2)" clip-rule="nonzero">
<path style=" stroke:none;fill-rule:nonzero;fill:rgb(100%,34.118652%,34.118652%);fill-opacity:1;" d="M 116.535156 232.5625 C 85.492188 232.5625 56.257812 220.476562 34.324219 198.496094 C 12.339844 176.558594 0.257812 147.324219 0.257812 116.28125 C 0.257812 85.234375 12.339844 56.003906 34.324219 34.066406 C 56.257812 12.082031 85.492188 0 116.535156 0 C 147.582031 0 176.816406 12.082031 198.75 34.066406 C 220.734375 56.050781 232.816406 85.234375 232.816406 116.28125 C 232.816406 147.324219 220.734375 176.558594 198.75 198.496094 C 176.816406 220.476562 147.582031 232.5625 116.535156 232.5625 Z M 116.535156 6.972656 C 87.351562 6.972656 59.882812 18.359375 39.25 38.992188 C 18.613281 59.628906 7.226562 87.09375 7.226562 116.28125 C 7.226562 145.464844 18.613281 172.933594 39.25 193.566406 C 59.882812 214.203125 87.351562 225.589844 116.535156 225.589844 C 145.722656 225.589844 173.191406 214.203125 193.824219 193.566406 C 214.460938 172.933594 225.847656 145.464844 225.847656 116.28125 C 225.847656 87.09375 214.460938 59.628906 193.824219 38.992188 C 173.191406 18.359375 145.722656 6.972656 116.535156 6.972656 Z M 116.535156 6.972656 "/>
</g>
<g clip-path="url(#clip3)" clip-rule="nonzero">
<path style=" stroke:none;fill-rule:nonzero;fill:rgb(100%,34.118652%,34.118652%);fill-opacity:1;" d="M 69.554688 28.136719 C 49.953125 28.136719 34.066406 44.011719 34.066406 63.601562 C 34.066406 83.1875 49.953125 99.066406 69.554688 99.066406 C 89.15625 99.066406 105.042969 83.1875 105.042969 63.601562 C 105.042969 44.011719 89.15625 28.136719 69.554688 28.136719 Z M 69.554688 38.773438 C 71.515625 38.773438 73.105469 40.363281 73.105469 42.320312 L 73.105469 63.601562 C 73.105469 63.773438 73.03125 63.925781 73.007812 64.09375 C 72.972656 64.347656 72.945312 64.601562 72.855469 64.847656 C 72.773438 65.058594 72.640625 65.234375 72.519531 65.429688 C 72.402344 65.625 72.296875 65.828125 72.140625 65.996094 C 71.964844 66.183594 71.753906 66.316406 71.542969 66.460938 C 71.402344 66.5625 71.300781 66.695312 71.140625 66.773438 L 56.945312 73.867188 C 56.4375 74.117188 55.898438 74.238281 55.367188 74.238281 C 54.0625 74.238281 52.808594 73.523438 52.183594 72.28125 C 51.308594 70.527344 52.019531 68.398438 53.769531 67.519531 L 66.003906 61.410156 L 66.003906 42.320312 C 66.003906 40.363281 67.59375 38.773438 69.554688 38.773438 Z M 153.171875 52.960938 C 144.351562 52.960938 137.199219 60.105469 137.199219 68.921875 C 137.199219 77.734375 144.351562 84.878906 153.171875 84.878906 C 161.988281 84.878906 169.140625 77.734375 169.140625 68.921875 C 169.140625 60.105469 161.988281 52.960938 153.171875 52.960938 Z M 138.996094 84.84375 C 138.738281 84.851562 132.671875 85.039062 128.1875 86.382812 L 105.09375 94.222656 C 102.628906 95.207031 101.027344 96.695312 100.28125 98.589844 L 88.503906 120.769531 C 86.277344 124.777344 87.222656 129.617188 90.808594 132.300781 C 92.941406 133.792969 95.613281 134.320312 98.140625 133.722656 C 100.644531 133.132812 102.796875 131.488281 104.046875 129.191406 L 113.75 110.757812 L 125.972656 105.980469 L 117.175781 132.972656 C 115.570312 138.582031 117.035156 143.699219 121.734375 148.371094 L 148.484375 167.90625 L 157.15625 198.464844 C 158.265625 202.367188 161.828125 204.921875 165.695312 204.921875 C 166.496094 204.921875 167.304688 204.808594 168.109375 204.582031 C 170.394531 203.9375 172.285156 202.4375 173.4375 200.371094 C 174.597656 198.304688 174.871094 195.910156 174.230469 193.632812 L 164.609375 159.710938 C 163.464844 156.117188 161.28125 153.925781 160.046875 152.910156 L 146.488281 142.394531 L 153.515625 118.972656 L 158.222656 126.648438 C 160.0625 129.40625 162.792969 130.984375 165.730469 130.984375 L 190.21875 130.984375 C 192.847656 130.984375 195.351562 129.8125 197.089844 127.765625 C 198.761719 125.789062 199.476562 123.238281 199.066406 120.761719 L 199.058594 120.707031 C 198.191406 116.386719 194.328125 113.253906 189.867188 113.253906 L 170.976562 113.253906 L 160.503906 96.363281 C 156.351562 89.578125 147.53125 84.84375 138.996094 84.84375 Z M 116.523438 152.089844 L 111.386719 162.023438 L 87.964844 160.25 C 83.351562 159.894531 79.09375 163.441406 78.738281 168.050781 C 78.382812 172.660156 81.929688 176.917969 86.542969 177.277344 C 86.542969 177.277344 116.355469 179.402344 116.710938 179.402344 C 119.90625 179.402344 123.097656 177.273438 124.515625 174.4375 L 129.546875 163.117188 L 118.339844 154.039062 L 118.042969 153.800781 L 117.785156 153.539062 C 117.304688 153.054688 116.9375 152.578125 116.523438 152.089844 Z M 116.523438 152.089844 "/>
</g>
</g>
</svg>
