<?xml version="1.0" encoding="UTF-8"?>
<svg xmlns="http://www.w3.org/2000/svg" xmlns:xlink="http://www.w3.org/1999/xlink" width="237.75pt" height="233.249991pt" viewBox="0 0 237.75 233.249991" version="1.2">
<defs>
<clipPath id="clip1">
  <path d="M 0.257812 0 L 237.246094 0 L 237.246094 232.503906 L 0.257812 232.503906 Z M 0.257812 0 "/>
</clipPath>
<clipPath id="clip2">
  <path d="M 187 89 L 235.25 89 L 235.25 164 L 187 164 Z M 187 89 "/>
</clipPath>
<clipPath id="clip3">
  <path d="M 122 152 L 235 152 L 235 232.503906 L 122 232.503906 Z M 122 152 "/>
</clipPath>
</defs>
<g id="surface1">
<g clip-path="url(#clip1)" clip-rule="nonzero">
<path style=" stroke:none;fill-rule:nonzero;fill:rgb(100%,100%,100%);fill-opacity:1;" d="M 0.257812 0 L 237.492188 0 L 237.492188 232.746094 L 0.257812 232.746094 Z M 0.257812 0 "/>
<path style=" stroke:none;fill-rule:nonzero;fill:rgb(100%,100%,100%);fill-opacity:1;" d="M 0.257812 0 L 237.492188 0 L 237.492188 232.746094 L 0.257812 232.746094 Z M 0.257812 0 "/>
</g>
<path style=" stroke:none;fill-rule:nonzero;fill:rgb(100%,74.119568%,34.899902%);fill-opacity:1;" d="M 166.980469 58.003906 C 164.976562 58.003906 163.339844 59.640625 163.339844 61.640625 C 163.339844 63.640625 164.976562 65.277344 166.980469 65.277344 L 175.535156 65.277344 L 166.617188 96.917969 C 166.070312 98.917969 167.160156 100.917969 169.164062 101.464844 C 169.527344 101.644531 169.890625 101.644531 170.074219 101.644531 C 171.710938 101.644531 173.167969 100.554688 173.53125 98.917969 L 183.175781 65.460938 L 199.917969 65.460938 L 209.382812 99.097656 C 209.746094 100.734375 211.203125 101.828125 212.839844 101.828125 C 213.203125 101.828125 213.570312 101.828125 213.75 101.644531 C 215.753906 101.097656 216.84375 99.097656 216.296875 97.097656 L 207.382812 65.460938 L 208.65625 65.460938 C 210.65625 65.460938 212.292969 63.824219 212.292969 61.824219 C 212.292969 59.824219 210.65625 58.1875 208.65625 58.1875 L 205.199219 58.1875 L 198.644531 35.09375 C 202.832031 32.546875 205.742188 27.820312 205.742188 22.546875 C 205.742188 15.636719 201.195312 10 194.824219 8.363281 L 194.824219 3.636719 C 194.824219 1.636719 193.1875 0 191.183594 0 C 189.183594 0 187.542969 1.636719 187.542969 3.636719 L 187.542969 8 C 181.355469 9.636719 176.625 15.457031 176.625 22.183594 C 176.625 27.640625 179.539062 32.183594 183.722656 34.730469 L 177.171875 57.824219 L 166.980469 57.824219 Z M 184.996094 57.460938 L 191.003906 36.546875 C 191.183594 36.546875 191.183594 36.546875 191.367188 36.546875 C 191.546875 36.546875 191.546875 36.546875 191.730469 36.546875 L 197.734375 57.460938 Z M 184.085938 22 C 184.085938 18 187.363281 14.730469 191.367188 14.730469 C 195.371094 14.730469 198.644531 18 198.644531 22 C 198.644531 26.003906 195.371094 29.273438 191.367188 29.273438 C 187.363281 29.273438 184.085938 26.003906 184.085938 22 Z M 184.085938 22 "/>
<path style=" stroke:none;fill-rule:nonzero;fill:rgb(100%,74.119568%,34.899902%);fill-opacity:1;" d="M 97.824219 44.550781 C 97.460938 44.367188 97.277344 44.1875 96.914062 44.1875 C 96.914062 44.1875 96.734375 44.1875 96.734375 44.003906 C 79.988281 37.820312 66.703125 49.277344 61.972656 56.1875 L 6.101562 140.195312 C 5.738281 140.558594 2.828125 146.375 2.464844 149.101562 C 0.28125 161.285156 8.46875 173.289062 20.84375 175.46875 C 21.027344 175.46875 125.121094 190.925781 125.121094 190.925781 L 137.679688 185.46875 C 137.679688 185.46875 22.480469 168.378906 22.117188 168.378906 C 13.746094 166.921875 8.105469 158.742188 9.5625 150.375 C 10.289062 146.375 13.382812 142.558594 17.75 140.375 C 20.664062 138.921875 26.851562 136.921875 34.492188 140.738281 C 36.132812 141.648438 38.132812 141.101562 39.226562 139.464844 L 79.445312 78.914062 L 160.792969 89.097656 L 162.792969 82.007812 L 83.992188 72.007812 L 98.917969 49.457031 C 100.007812 47.820312 99.644531 45.640625 97.824219 44.550781 Z M 34.675781 132.738281 C 29.945312 131.101562 25.03125 130.738281 20.480469 131.648438 L 68.160156 60.1875 C 68.523438 59.640625 77.078125 47.640625 90 49.640625 Z M 34.675781 132.738281 "/>
<g clip-path="url(#clip2)" clip-rule="nonzero">
<path style=" stroke:none;fill-rule:nonzero;fill:rgb(100%,74.119568%,34.899902%);fill-opacity:1;" d="M 198.28125 158.742188 L 234.496094 96.191406 C 235.042969 95.097656 235.226562 93.824219 234.679688 92.734375 C 234.132812 91.644531 233.042969 90.917969 231.949219 90.734375 L 222.121094 89.460938 L 223.394531 94.191406 C 223.578125 95.097656 223.761719 96.191406 223.761719 97.097656 L 225.578125 97.28125 L 187 163.648438 Z M 198.28125 158.742188 "/>
</g>
<g clip-path="url(#clip3)" clip-rule="nonzero">
<path style=" stroke:none;fill-rule:nonzero;fill:rgb(100%,74.119568%,34.899902%);fill-opacity:1;" d="M 229.039062 153.105469 L 124.941406 199.109375 C 123.484375 199.652344 122.757812 201.109375 122.757812 202.5625 C 122.757812 204.015625 123.847656 205.289062 125.121094 205.835938 C 125.121094 205.835938 203.742188 232.746094 204.105469 232.746094 C 205.5625 232.746094 207.015625 231.835938 207.5625 230.382812 C 207.5625 230.382812 233.042969 160.195312 233.769531 157.648438 C 234.316406 156.195312 233.953125 154.742188 232.859375 153.832031 C 231.949219 152.738281 230.3125 152.558594 229.039062 153.105469 Z M 201.921875 224.5625 L 136.222656 202.015625 L 224.125 163.105469 C 218.484375 179.105469 205.925781 213.65625 201.921875 224.5625 Z M 201.921875 224.5625 "/>
</g>
<path style=" stroke:none;fill-rule:nonzero;fill:rgb(100%,74.119568%,34.899902%);fill-opacity:1;" d="M 169.710938 201.835938 L 197.371094 211.289062 C 197.734375 211.472656 198.101562 211.472656 198.644531 211.472656 C 200.101562 211.472656 201.558594 210.5625 202.105469 209.109375 L 211.386719 183.289062 C 211.929688 181.832031 211.566406 180.378906 210.476562 179.46875 C 209.382812 178.558594 207.746094 178.195312 206.472656 178.742188 L 169.527344 194.925781 C 168.070312 195.472656 167.34375 196.925781 167.34375 198.378906 C 167.34375 200.015625 168.253906 201.289062 169.710938 201.835938 Z M 201.558594 188.925781 L 196.28125 203.289062 L 180.8125 198.015625 Z M 201.558594 188.925781 "/>
<path style=" stroke:none;fill-rule:nonzero;fill:rgb(100%,74.119568%,34.899902%);fill-opacity:1;" d="M 160.792969 100.371094 L 126.03125 95.460938 C 124.757812 95.28125 123.484375 95.828125 122.574219 96.917969 L 116.75 104.734375 L 88.90625 100.734375 C 87.632812 100.554688 86.175781 101.097656 85.449219 102.191406 C 85.449219 102.191406 75.804688 114.917969 75.621094 115.644531 C 75.078125 117.644531 76.351562 119.644531 78.351562 120.011719 C 78.351562 120.011719 88.363281 122.375 88.726562 122.375 C 90.363281 122.375 91.820312 121.28125 92.363281 119.648438 C 92.910156 117.644531 91.636719 115.644531 89.636719 115.28125 L 85.632812 114.375 L 90.179688 108.554688 L 110.199219 111.464844 L 72.710938 160.558594 L 52.691406 157.648438 L 58.699219 149.648438 C 58.699219 149.648438 66.339844 151.46875 66.703125 151.46875 C 68.34375 151.46875 69.796875 150.375 70.34375 148.738281 C 70.890625 146.738281 69.617188 144.921875 67.613281 144.375 C 67.613281 144.375 57.421875 142.195312 57.421875 142.195312 C 56.332031 142.195312 55.238281 142.738281 54.511719 143.648438 L 43.046875 158.195312 C 42.320312 159.285156 42.136719 160.558594 42.5 161.832031 C 43.046875 163.105469 44.136719 163.832031 45.414062 164.015625 C 45.414062 164.015625 139.5 177.289062 139.683594 177.289062 C 140.773438 177.289062 141.867188 176.742188 142.59375 175.832031 L 185.90625 119.828125 C 186.632812 118.738281 186.816406 117.464844 186.453125 116.191406 C 185.90625 114.917969 184.816406 114.191406 183.539062 114.007812 L 159.882812 110.738281 L 163.339844 106.371094 C 164.066406 105.28125 164.25 104.007812 163.886719 102.734375 C 163.160156 101.464844 162.066406 100.554688 160.792969 100.371094 Z M 127.308594 103.101562 L 153.695312 106.734375 L 149.875 111.828125 L 123.484375 108.191406 Z M 118.207031 114.738281 L 144.59375 118.375 L 140.773438 123.464844 L 114.386719 119.828125 Z M 109.109375 126.375 L 135.496094 130.011719 L 131.675781 135.101562 L 105.285156 131.464844 Z M 100.191406 138.195312 L 126.578125 141.832031 L 122.757812 146.921875 L 96.367188 143.285156 Z M 81.808594 161.832031 L 91.089844 149.832031 L 117.480469 153.46875 L 108.199219 165.46875 Z M 176.261719 120.375 L 170.4375 127.828125 C 170.253906 127.828125 160.246094 125.464844 160.246094 125.464844 C 158.246094 124.917969 156.242188 126.191406 155.878906 128.191406 C 155.332031 130.191406 156.605469 132.191406 158.609375 132.558594 L 165.707031 134.191406 L 162.976562 137.648438 C 162.976562 137.648438 152.96875 135.285156 152.96875 135.285156 C 150.964844 134.738281 148.964844 136.011719 148.597656 138.011719 C 148.054688 140.011719 149.328125 142.011719 151.328125 142.375 L 158.0625 144.011719 L 155.332031 147.46875 C 155.332031 147.46875 145.503906 145.101562 145.503906 145.101562 C 143.503906 144.558594 141.5 145.832031 141.136719 147.832031 C 140.59375 149.832031 141.867188 151.832031 143.867188 152.195312 L 150.417969 153.648438 L 147.6875 157.285156 L 138.042969 155.105469 C 136.042969 154.558594 134.039062 155.832031 133.675781 157.832031 C 133.128906 159.832031 134.402344 161.832031 136.40625 162.195312 L 142.777344 163.648438 L 138.042969 169.832031 L 117.480469 166.921875 L 155.695312 117.464844 Z M 176.261719 120.375 "/>
<path style=" stroke:none;fill-rule:nonzero;fill:rgb(100%,74.119568%,34.899902%);fill-opacity:1;" d="M 79.988281 132.011719 C 81.992188 132.375 83.8125 131.101562 84.175781 129.101562 C 84.539062 127.101562 83.265625 125.285156 81.265625 124.917969 L 72.347656 123.464844 C 70.890625 123.28125 69.433594 123.828125 68.707031 125.101562 L 61.792969 133.464844 C 60.882812 134.558594 60.699219 135.828125 61.246094 137.101562 C 61.792969 138.375 62.882812 139.285156 64.15625 139.464844 L 75.257812 141.101562 C 75.441406 141.101562 75.621094 141.101562 75.804688 141.101562 C 77.625 141.101562 79.078125 139.828125 79.445312 138.011719 C 79.808594 136.011719 78.351562 134.191406 76.351562 133.828125 L 71.617188 133.101562 L 73.4375 130.921875 Z M 79.988281 132.011719 "/>
<path style=" stroke:none;fill-rule:nonzero;fill:rgb(100%,74.119568%,34.899902%);fill-opacity:1;" d="M 184.816406 84.734375 L 182.8125 91.824219 L 200.464844 94.007812 L 198.28125 86.371094 Z M 184.816406 84.734375 "/>
</g>
</svg>
