<?xml version="1.0" encoding="UTF-8"?>
<svg xmlns="http://www.w3.org/2000/svg" xmlns:xlink="http://www.w3.org/1999/xlink" width="237.75pt" height="233.249991pt" viewBox="0 0 237.75 233.249991" version="1.2">
<defs>
<clipPath id="clip1">
  <path d="M 0.257812 0 L 237.246094 0 L 237.246094 232.503906 L 0.257812 232.503906 Z M 0.257812 0 "/>
</clipPath>
<clipPath id="clip2">
  <path d="M 0.257812 0 L 233 0 L 233 232.503906 L 0.257812 232.503906 Z M 0.257812 0 "/>
</clipPath>
<clipPath id="clip3">
  <path d="M 153 27.375 L 195 27.375 L 195 106 L 153 106 Z M 153 27.375 "/>
</clipPath>
<clipPath id="clip4">
  <path d="M 171 95 L 208.703125 95 L 208.703125 153 L 171 153 Z M 171 95 "/>
</clipPath>
<clipPath id="clip5">
  <path d="M 122 144 L 208 144 L 208 205.492188 L 122 205.492188 Z M 122 144 "/>
</clipPath>
</defs>
<g id="surface1">
<g clip-path="url(#clip1)" clip-rule="nonzero">
<path style=" stroke:none;fill-rule:nonzero;fill:rgb(100%,100%,100%);fill-opacity:1;" d="M 0.257812 0 L 237.492188 0 L 237.492188 232.746094 L 0.257812 232.746094 Z M 0.257812 0 "/>
<path style=" stroke:none;fill-rule:nonzero;fill:rgb(100%,100%,100%);fill-opacity:1;" d="M 0.257812 0 L 237.492188 0 L 237.492188 232.746094 L 0.257812 232.746094 Z M 0.257812 0 "/>
</g>
<g clip-path="url(#clip2)" clip-rule="nonzero">
<path style=" stroke:none;fill-rule:nonzero;fill:rgb(100%,74.119568%,34.899902%);fill-opacity:1;" d="M 116.535156 232.5625 C 85.492188 232.5625 56.257812 220.476562 34.324219 198.496094 C 12.339844 176.558594 0.257812 147.324219 0.257812 116.28125 C 0.257812 85.234375 12.339844 56.003906 34.324219 34.066406 C 56.257812 12.082031 85.492188 0 116.535156 0 C 147.582031 0 176.816406 12.082031 198.75 34.066406 C 220.734375 56.050781 232.816406 85.234375 232.816406 116.28125 C 232.816406 147.324219 220.734375 176.558594 198.75 198.496094 C 176.816406 220.476562 147.582031 232.5625 116.535156 232.5625 Z M 116.535156 6.972656 C 87.351562 6.972656 59.882812 18.359375 39.25 38.992188 C 18.613281 59.628906 7.226562 87.09375 7.226562 116.28125 C 7.226562 145.464844 18.613281 172.933594 39.25 193.570312 C 59.882812 214.203125 87.351562 225.589844 116.535156 225.589844 C 145.722656 225.589844 173.191406 214.203125 193.824219 193.570312 C 214.460938 172.933594 225.847656 145.464844 225.847656 116.28125 C 225.847656 87.09375 214.460938 59.628906 193.824219 38.992188 C 173.191406 18.359375 145.722656 6.972656 116.535156 6.972656 Z M 116.535156 6.972656 "/>
</g>
<g clip-path="url(#clip3)" clip-rule="nonzero">
<path style=" stroke:none;fill-rule:nonzero;fill:rgb(100%,74.119568%,34.899902%);fill-opacity:1;" d="M 156.519531 71.765625 C 154.992188 71.765625 153.738281 73.015625 153.738281 74.546875 C 153.738281 76.078125 154.992188 77.332031 156.519531 77.332031 L 163.058594 77.332031 L 156.242188 101.542969 C 155.824219 103.074219 156.660156 104.605469 158.191406 105.023438 C 158.46875 105.160156 158.746094 105.160156 158.886719 105.160156 C 160.136719 105.160156 161.25 104.328125 161.527344 103.074219 L 168.898438 77.46875 L 181.695312 77.46875 L 188.929688 103.214844 C 189.207031 104.464844 190.320312 105.300781 191.570312 105.300781 C 191.847656 105.300781 192.128906 105.300781 192.265625 105.160156 C 193.796875 104.742188 194.628906 103.214844 194.214844 101.683594 L 187.398438 77.46875 L 188.371094 77.46875 C 189.902344 77.46875 191.152344 76.21875 191.152344 74.6875 C 191.152344 73.15625 189.902344 71.902344 188.371094 71.902344 L 185.730469 71.902344 L 180.722656 54.230469 C 183.921875 52.285156 186.144531 48.664062 186.144531 44.628906 C 186.144531 39.34375 182.667969 35.027344 177.800781 33.777344 L 177.800781 30.160156 C 177.800781 28.628906 176.550781 27.375 175.019531 27.375 C 173.488281 27.375 172.238281 28.628906 172.238281 30.160156 L 172.238281 33.5 C 167.507812 34.75 163.890625 39.203125 163.890625 44.351562 C 163.890625 48.527344 166.117188 52.003906 169.316406 53.953125 L 164.308594 71.625 L 156.519531 71.625 Z M 170.289062 71.347656 L 174.878906 55.34375 C 175.019531 55.34375 175.019531 55.34375 175.160156 55.34375 C 175.296875 55.34375 175.296875 55.34375 175.4375 55.34375 L 180.027344 71.347656 Z M 169.59375 44.210938 C 169.59375 41.152344 172.097656 38.648438 175.160156 38.648438 C 178.21875 38.648438 180.722656 41.152344 180.722656 44.210938 C 180.722656 47.273438 178.21875 49.777344 175.160156 49.777344 C 172.097656 49.777344 169.59375 47.273438 169.59375 44.210938 Z M 169.59375 44.210938 "/>
</g>
<path style=" stroke:none;fill-rule:nonzero;fill:rgb(100%,74.119568%,34.899902%);fill-opacity:1;" d="M 103.667969 61.46875 C 103.390625 61.328125 103.25 61.191406 102.972656 61.191406 C 102.972656 61.191406 102.832031 61.191406 102.832031 61.050781 C 90.035156 56.320312 79.882812 65.085938 76.265625 70.375 L 33.566406 134.660156 C 33.289062 134.941406 31.0625 139.394531 30.785156 141.480469 C 29.117188 150.804688 35.375 159.988281 44.832031 161.65625 C 44.972656 161.65625 124.53125 173.484375 124.53125 173.484375 L 134.128906 169.3125 C 134.128906 169.3125 46.085938 156.230469 45.804688 156.230469 C 39.410156 155.117188 35.097656 148.855469 36.210938 142.453125 C 36.765625 139.394531 39.128906 136.472656 42.46875 134.800781 C 44.695312 133.6875 49.421875 132.15625 55.265625 135.078125 C 56.515625 135.773438 58.046875 135.359375 58.878906 134.105469 L 89.621094 87.765625 L 151.792969 95.558594 L 153.320312 90.132812 L 93.097656 82.480469 L 104.5 65.226562 C 105.335938 63.972656 105.058594 62.300781 103.667969 61.46875 Z M 55.402344 128.957031 C 51.789062 127.703125 48.03125 127.425781 44.554688 128.121094 L 80.996094 73.433594 C 81.273438 73.015625 87.8125 63.832031 97.6875 65.363281 Z M 55.402344 128.957031 "/>
<g clip-path="url(#clip4)" clip-rule="nonzero">
<path style=" stroke:none;fill-rule:nonzero;fill:rgb(100%,74.119568%,34.899902%);fill-opacity:1;" d="M 180.445312 148.855469 L 208.121094 100.988281 C 208.539062 100.152344 208.679688 99.179688 208.261719 98.34375 C 207.84375 97.507812 207.007812 96.953125 206.175781 96.8125 L 198.664062 95.839844 L 199.636719 99.457031 C 199.777344 100.152344 199.914062 100.988281 199.914062 101.683594 L 201.308594 101.820312 L 171.820312 152.613281 Z M 180.445312 148.855469 "/>
</g>
<g clip-path="url(#clip5)" clip-rule="nonzero">
<path style=" stroke:none;fill-rule:nonzero;fill:rgb(100%,74.119568%,34.899902%);fill-opacity:1;" d="M 203.949219 144.542969 L 124.390625 179.746094 C 123.277344 180.164062 122.722656 181.277344 122.722656 182.390625 C 122.722656 183.503906 123.558594 184.476562 124.53125 184.894531 C 124.53125 184.894531 184.617188 205.492188 184.894531 205.492188 C 186.007812 205.492188 187.121094 204.792969 187.539062 203.679688 C 187.539062 203.679688 207.007812 149.96875 207.566406 148.019531 C 207.984375 146.90625 207.703125 145.792969 206.871094 145.097656 C 206.175781 144.261719 204.921875 144.125 203.949219 144.542969 Z M 183.226562 199.230469 L 133.015625 181.972656 L 200.195312 152.195312 C 195.882812 164.441406 186.285156 190.878906 183.226562 199.230469 Z M 183.226562 199.230469 "/>
</g>
<path style=" stroke:none;fill-rule:nonzero;fill:rgb(100%,74.119568%,34.899902%);fill-opacity:1;" d="M 158.605469 181.835938 L 179.75 189.070312 C 180.027344 189.210938 180.304688 189.210938 180.722656 189.210938 C 181.835938 189.210938 182.945312 188.515625 183.363281 187.402344 L 190.457031 167.640625 C 190.875 166.527344 190.597656 165.414062 189.761719 164.71875 C 188.929688 164.023438 187.675781 163.746094 186.703125 164.164062 L 158.46875 176.546875 C 157.355469 176.964844 156.796875 178.078125 156.796875 179.191406 C 156.796875 180.441406 157.496094 181.417969 158.605469 181.835938 Z M 182.945312 171.953125 L 178.914062 182.949219 L 167.089844 178.914062 Z M 182.945312 171.953125 "/>
<path style=" stroke:none;fill-rule:nonzero;fill:rgb(100%,74.119568%,34.899902%);fill-opacity:1;" d="M 151.792969 104.1875 L 125.226562 100.429688 C 124.253906 100.292969 123.277344 100.707031 122.582031 101.542969 L 118.132812 107.527344 L 96.851562 104.464844 C 95.878906 104.328125 94.765625 104.742188 94.210938 105.578125 C 94.210938 105.578125 86.835938 115.320312 86.699219 115.875 C 86.28125 117.40625 87.253906 118.9375 88.785156 119.214844 C 88.785156 119.214844 96.433594 121.023438 96.710938 121.023438 C 97.964844 121.023438 99.078125 120.191406 99.496094 118.9375 C 99.910156 117.40625 98.9375 115.875 97.40625 115.597656 L 94.347656 114.902344 L 97.824219 110.449219 L 113.125 112.675781 L 84.472656 150.246094 L 69.171875 148.019531 L 73.761719 141.898438 C 73.761719 141.898438 79.605469 143.289062 79.882812 143.289062 C 81.136719 143.289062 82.246094 142.453125 82.664062 141.203125 C 83.082031 139.671875 82.109375 138.28125 80.578125 137.863281 C 80.578125 137.863281 72.789062 136.191406 72.789062 136.191406 C 71.953125 136.191406 71.121094 136.609375 70.5625 137.304688 L 61.800781 148.4375 C 61.246094 149.273438 61.105469 150.246094 61.382812 151.222656 C 61.800781 152.195312 62.636719 152.75 63.609375 152.890625 C 63.609375 152.890625 135.519531 163.050781 135.65625 163.050781 C 136.492188 163.050781 137.328125 162.632812 137.882812 161.9375 L 170.984375 119.078125 C 171.542969 118.242188 171.679688 117.269531 171.402344 116.292969 C 170.984375 115.320312 170.152344 114.761719 169.175781 114.625 L 151.097656 112.121094 L 153.738281 108.78125 C 154.296875 107.945312 154.433594 106.96875 154.15625 105.996094 C 153.601562 105.023438 152.765625 104.328125 151.792969 104.1875 Z M 126.199219 106.273438 L 146.367188 109.058594 L 143.445312 112.953125 L 123.277344 110.171875 Z M 119.246094 115.179688 L 139.414062 117.964844 L 136.492188 121.859375 L 116.324219 119.078125 Z M 112.289062 124.085938 L 132.457031 126.871094 L 129.539062 130.765625 L 109.371094 127.984375 Z M 105.476562 133.132812 L 125.644531 135.914062 L 122.722656 139.808594 L 102.554688 137.027344 Z M 91.425781 151.222656 L 98.519531 142.035156 L 118.6875 144.820312 L 111.59375 154.003906 Z M 163.613281 119.496094 L 159.164062 125.199219 C 159.023438 125.199219 151.375 123.390625 151.375 123.390625 C 149.84375 122.972656 148.3125 123.945312 148.035156 125.476562 C 147.617188 127.007812 148.59375 128.539062 150.121094 128.816406 L 155.546875 130.070312 L 153.460938 132.714844 C 153.460938 132.714844 145.8125 130.90625 145.8125 130.90625 C 144.28125 130.488281 142.75 131.460938 142.472656 132.992188 C 142.054688 134.523438 143.027344 136.054688 144.558594 136.332031 L 149.707031 137.585938 L 147.617188 140.226562 C 147.617188 140.226562 140.109375 138.417969 140.109375 138.417969 C 138.578125 138 137.046875 138.976562 136.769531 140.507812 C 136.351562 142.035156 137.328125 143.566406 138.855469 143.847656 L 143.863281 144.960938 L 141.777344 147.742188 L 134.40625 146.074219 C 132.875 145.65625 131.34375 146.628906 131.066406 148.160156 C 130.648438 149.691406 131.625 151.222656 133.152344 151.5 L 138.023438 152.613281 L 134.40625 157.34375 L 118.6875 155.117188 L 147.898438 117.269531 Z M 163.613281 119.496094 "/>
<path style=" stroke:none;fill-rule:nonzero;fill:rgb(100%,74.119568%,34.899902%);fill-opacity:1;" d="M 90.035156 128.398438 C 91.566406 128.679688 92.957031 127.703125 93.234375 126.171875 C 93.511719 124.644531 92.539062 123.25 91.011719 122.972656 L 84.195312 121.859375 C 83.082031 121.71875 81.96875 122.136719 81.414062 123.113281 L 76.128906 129.511719 C 75.433594 130.347656 75.292969 131.320312 75.710938 132.296875 C 76.128906 133.269531 76.960938 133.964844 77.9375 134.105469 L 86.421875 135.359375 C 86.558594 135.359375 86.699219 135.359375 86.835938 135.359375 C 88.226562 135.359375 89.339844 134.382812 89.621094 132.992188 C 89.898438 131.460938 88.785156 130.070312 87.253906 129.792969 L 83.636719 129.234375 L 85.027344 127.566406 Z M 90.035156 128.398438 "/>
<path style=" stroke:none;fill-rule:nonzero;fill:rgb(100%,74.119568%,34.899902%);fill-opacity:1;" d="M 170.152344 92.21875 L 168.621094 97.648438 L 182.113281 99.316406 L 180.445312 93.472656 Z M 170.152344 92.21875 "/>
</g>
</svg>
